<svg width="545" height="390" viewBox="0 0 545 390" fill="none" xmlns="http://www.w3.org/2000/svg">
<g filter="url(#filter0_d_293_251)">
<rect x="13.2002" y="8.19995" width="518" height="363" rx="30" fill="url(#paint0_linear_293_251)"/>
</g>
<mask id="mask0_293_251" style="mask-type:alpha" maskUnits="userSpaceOnUse" x="59" y="151" width="429" height="221">
<rect x="64.2002" y="156.2" width="417.809" height="210.227" rx="25" fill="#D7F1FF" stroke="#3D87FF" stroke-width="10"/>
</mask>
<g mask="url(#mask0_293_251)">
<path d="M108.191 169.094C108.783 168.664 109.234 168.445 109.486 168.342C109.6 168.295 109.675 168.272 109.707 168.263L109.851 168.238L110.056 168.166C110.054 168.166 110.052 168.168 110.051 168.168C110.052 168.168 110.054 168.167 110.056 168.166C110.068 168.162 110.098 168.152 110.148 168.138C110.247 168.109 110.423 168.062 110.675 168.004C111.18 167.888 111.996 167.731 113.14 167.603C115.427 167.346 119.03 167.203 124.078 167.731C134.175 168.789 150.061 172.541 172.743 183.478C183.617 188.721 195.731 197.208 205.201 204.46C209.919 208.073 213.947 211.355 216.795 213.731C217.417 214.25 217.981 214.727 218.485 215.153L110.428 305.627C110.072 304.877 109.663 303.991 109.214 302.971C107.547 299.184 105.317 293.562 103.104 286.294C98.6773 271.756 94.3247 250.646 94.6711 224.456C95.0411 196.481 99.3729 182.289 103.269 175.207C105.201 171.696 107.017 169.948 108.191 169.094Z" fill="#C2C0B1" stroke="black" stroke-width="6"/>
<path d="M138.383 173.373L152.88 177.772L137.413 211.138L124.278 204.583L138.383 173.373Z" fill="#626260"/>
<path d="M169.947 185.432L182.379 192.33L162.794 228.088L151.258 217.433L153.481 214.705C160.55 206.027 166.117 196.13 169.947 185.432Z" fill="#626260"/>
<path d="M110.799 173.715C110.799 173.715 158.878 204.756 165.691 229.115C133.414 249.178 123.272 276.094 109.169 289.033C81.0462 215.469 110.799 173.715 110.799 173.715Z" fill="#FFF0CF"/>
<path d="M112.329 184.886C112.329 184.886 137.901 218.554 141.141 239.106C123.188 248.839 117.539 267.5 109.614 275.053C95.7213 211.555 112.329 184.886 112.329 184.886Z" fill="#E9593E"/>
<ellipse cx="5.51474" cy="15.5816" rx="5.51474" ry="15.5816" transform="matrix(-0.490242 0.871586 -0.843132 -0.537707 147.463 218.271)" fill="#FFF0CF"/>
<ellipse cx="7.46989" cy="17.9345" rx="7.46989" ry="17.9345" transform="matrix(-0.0912753 0.995826 -0.997192 -0.074886 145.201 217)" fill="#FFF0CF"/>
<path d="M445.098 173.313C444.499 172.933 444.045 172.753 443.791 172.671C443.677 172.634 443.6 172.617 443.568 172.61L443.425 172.598L443.218 172.542C443.221 172.543 443.222 172.544 443.223 172.545C443.222 172.544 443.221 172.543 443.219 172.543C443.206 172.54 443.176 172.533 443.126 172.523C443.026 172.502 442.851 172.47 442.597 172.433C442.09 172.361 441.272 172.273 440.127 172.242C437.837 172.179 434.234 172.339 429.2 173.295C419.127 175.206 403.316 180.3 380.834 193.148C370.058 199.307 358.095 208.812 348.754 216.86C344.101 220.87 340.131 224.49 337.326 227.105C336.714 227.676 336.158 228.2 335.662 228.668L445.171 309.936C445.514 309.157 445.907 308.238 446.338 307.182C447.94 303.256 450.073 297.449 452.162 289.999C456.339 275.097 460.333 253.634 459.544 227.492C458.702 199.568 454.134 185.754 450.12 179.006C448.13 175.661 446.286 174.066 445.098 173.313Z" fill="#C2C0B1" stroke="black" stroke-width="6"/>
<path d="M397.481 187.338L411.019 181.549L424.521 215.077L412.651 221.232L397.481 187.338Z" fill="#626260"/>
<path d="M443.421 178.212C443.421 178.212 392.681 219.777 386.284 244.696C418.876 262.014 429.466 288.052 443.777 299.789C470.637 223.898 443.421 178.212 443.421 178.212Z" fill="#FFF0CF"/>
<path d="M444.263 203.45C444.263 203.45 418.805 228.669 414.726 245.009C424.246 263.387 435.103 269.729 442.049 276.429C458.251 226.242 444.263 203.45 444.263 203.45Z" fill="#E9593E"/>
<ellipse cx="6.57188" cy="16.3479" rx="6.57188" ry="16.3479" transform="matrix(-0.721255 0.731291 0.63595 0.737325 423.887 215.642)" fill="#FFF0CF"/>
<path d="M269.638 200.72C319.875 200.379 367.298 226.057 403.643 258.941C439.904 291.749 464.558 331.202 469.963 357.963C468.974 396.144 441.717 425.222 401.191 445.021C360.591 464.855 307.357 474.976 256.43 475.321C205.598 475.666 160.512 464.211 128.447 442.986C96.6207 421.919 77.6467 391.28 78.2936 352.727C97.2361 309.469 119.927 271.713 150.33 244.659C180.778 217.565 219.118 201.063 269.638 200.72Z" fill="#C2C0B1" stroke="black" stroke-width="6"/>
<path d="M418.322 351.903C411.932 389.112 381.859 404.32 345.801 397.296C309.744 390.273 294.642 366.266 301.031 329.057C307.421 291.849 332.322 258.789 368.379 265.812C409.854 286.992 424.711 314.694 418.322 351.903Z" fill="#FFF0CF"/>
<path d="M358.656 287.907C382.116 285.502 404.587 303.946 408.461 329.621C412.334 355.297 396.027 377.716 372.567 380.121C349.107 382.526 326.635 364.083 322.761 338.407C318.888 312.731 335.195 290.312 358.656 287.907Z" fill="#F38F05" stroke="black" stroke-width="6"/>
<path d="M393.911 329.353C397.009 356.26 375.337 362.405 358.941 362.228C342.546 362.052 330.236 346.958 329.331 325.306C328.426 303.655 340.983 286.246 357.379 286.423C373.775 286.6 393.006 307.702 393.911 329.353Z" fill="black"/>
<ellipse cx="362.947" cy="303.942" rx="10.4645" ry="8.06548" transform="rotate(34.6485 362.947 303.942)" fill="white"/>
<ellipse cx="389.438" cy="348.098" rx="6.20116" ry="6.59903" transform="rotate(34.6485 389.438 348.098)" fill="white"/>
<path d="M378.832 374.534C367.978 377.095 358.391 374.812 357.418 369.436C356.446 364.059 365.372 366.557 376.226 363.996C387.08 361.435 395.752 354.785 396.725 360.162C397.697 365.539 389.686 371.973 378.832 374.534Z" fill="#D46104"/>
<path d="M224.437 263.423C236.072 284.323 238.394 205.661 238.394 205.661C238.394 205.661 223.414 207.697 215.489 209.551C207.565 211.405 196.186 218.293 196.186 218.293C196.186 218.293 212.565 242.096 224.437 263.423Z" fill="#626260"/>
<path d="M123.243 359.855C139.907 356.714 87.5649 338.486 87.5649 338.486C87.5649 338.486 82.1274 344.81 81.1085 350.362C80.0404 356.182 81.4146 367.274 81.4146 367.274C81.4146 367.274 106.237 363.059 123.243 359.855Z" fill="#626260"/>
<path d="M111.812 339.563C120.976 341.22 96.3273 321.45 96.3273 321.45C96.3273 321.45 94.0612 325.512 92.502 328.119C90.8674 330.852 88.9422 335.703 88.9422 335.703C88.9422 335.703 102.46 337.871 111.812 339.563Z" fill="#626260"/>
<path d="M422.469 365.784C409.191 355.236 466.666 364.354 466.666 364.354C466.666 364.354 465.856 371.645 464.169 377.032C462.4 382.679 457.54 392.867 457.54 392.867C457.54 392.867 436.019 376.548 422.469 365.784Z" fill="#626260"/>
<path d="M442.793 356.719C433.487 357.086 460.687 340.948 460.687 340.948C460.687 340.948 462.766 344.22 464.275 347.791C465.514 350.725 465.977 356.076 465.977 356.076C465.977 356.076 452.289 356.344 442.793 356.719Z" fill="#626260"/>
<path d="M319.343 265.211C305.902 282.554 313.338 209.2 313.338 209.2L333.039 216.28L352.762 224.743C352.762 224.743 333.059 247.513 319.343 265.211Z" fill="#626260"/>
<path d="M279.161 267.934C264.399 288.223 254.837 203.475 254.837 203.475C254.837 203.475 267.374 202.208 274.695 202.82C282.489 203.472 298.622 205.874 298.622 205.874C298.622 205.874 291.767 250.607 279.161 267.934Z" fill="#626260"/>
<path d="M303.486 334.499C331.653 351.556 348.933 387.923 336.941 418.59C327.568 442.559 307.071 461.801 280.137 468.535C236.039 479.561 191.384 452.883 180.399 408.947C171.659 373.994 191.546 345.565 222.247 329.849C238.327 321.617 257.117 320.262 274.803 323.942C287.291 326.541 296.278 330.135 303.486 334.499Z" fill="#FFF0CF"/>
<path d="M429.637 422.46C415.198 434.984 372.204 465.998 267.179 469.782C199.837 472.207 141.688 451.007 104.322 419.421C92.4503 409.386 240.609 311.59 262.353 397.079C350.657 386.725 431.05 406.98 429.637 422.46Z" fill="#FFF0CF"/>
<path d="M342.518 387.537C356.701 400.292 373.754 396.494 370.433 401.068C367.113 405.642 350.995 402.702 337.844 393.155C324.693 383.608 324.212 374.799 327.533 370.225C330.854 365.651 332.405 376.756 342.518 387.537Z" fill="#FFF0CF"/>
<path d="M130.284 352.43C139.118 389.135 170.13 402.323 205.645 392.933C241.16 383.543 239.94 359.757 245.809 321.885C236.975 285.18 209.945 253.837 174.43 263.227C134.445 287.101 121.45 315.725 130.284 352.43Z" fill="#FFF0CF"/>
<path d="M185.593 284.631C162.025 283.781 140.821 303.669 138.652 329.545C136.484 355.421 154.236 376.713 177.804 377.563C201.372 378.413 222.576 358.525 224.745 332.65C226.913 306.774 209.161 285.481 185.593 284.631Z" fill="#F38F05" stroke="black" stroke-width="6"/>
<path d="M154.387 332.123C156.357 359.136 178.795 361.134 194.871 357.905C210.946 354.676 220.227 337.552 217.081 316.112C213.935 294.671 198.353 279.908 182.278 283.137C166.202 286.366 151.241 310.683 154.387 332.123Z" fill="black"/>
<ellipse cx="10.4645" cy="8.06548" rx="10.4645" ry="8.06548" transform="matrix(-0.702284 0.711896 0.711896 0.702284 181.681 288.273)" fill="white"/>
<ellipse cx="6.20116" cy="6.59903" rx="6.20116" ry="6.59903" transform="matrix(-0.702284 0.711896 0.711896 0.702284 164.799 339.01)" fill="white"/>
<path d="M166.956 371.617C177.315 375.749 187.134 374.903 188.888 369.728C190.641 364.553 181.445 365.709 171.086 361.578C160.728 357.446 153.129 349.592 151.376 354.767C149.622 359.942 156.598 367.486 166.956 371.617Z" fill="#D46104"/>
<path d="M205.395 265.494C205.272 271.757 196.662 260.383 185.571 260.706C174.481 261.03 165.109 272.927 165.232 266.664C165.354 260.402 174.584 247.976 185.675 247.653C196.766 247.33 205.518 259.232 205.395 265.494Z" fill="#626260"/>
<path d="M382.119 277.871C381.996 284.134 373.386 272.761 362.296 273.084C351.205 273.407 341.833 285.304 341.956 279.041C342.078 272.779 351.308 260.353 362.399 260.03C373.49 259.707 382.242 271.609 382.119 277.871Z" fill="#626260"/>
<ellipse cx="27.8275" cy="13.4943" rx="27.8275" ry="13.4943" transform="matrix(0.985943 0.16708 -0.121268 0.99262 241.712 347.022)" fill="#FA754C"/>
<path d="M271.153 388.792C264.856 390.165 253.043 381.485 250.155 372.708C247.267 363.932 254.399 358.383 260.696 357.009C266.993 355.636 274.438 361.637 277.326 370.414C298.109 371.364 277.449 387.418 271.153 388.792Z" fill="#FA754C"/>
<ellipse cx="10.7546" cy="4.09721" rx="10.7546" ry="4.09721" transform="matrix(0.982484 0.186345 -0.144909 0.989445 259.188 353.852)" fill="#FFF0CF"/>
<path d="M278.675 378.183C276.188 379.592 273.488 381.17 272.261 379.446C271.034 377.723 271.917 374.617 274.404 373.208C276.891 371.799 280.44 371.754 281.667 373.478C282.894 375.201 281.163 376.774 278.675 378.183Z" fill="#6B1D13"/>
<path d="M255.926 376.898C258.203 378.875 260.668 381.07 262.09 379.662C263.512 378.255 263.026 374.986 260.75 373.008C258.474 371.031 254.983 370.146 253.561 371.553C252.139 372.96 253.65 374.92 255.926 376.898Z" fill="#6B1D13"/>
</g>
<defs>
<filter id="filter0_d_293_251" x="0.000195503" y="-4.86374e-05" width="544.4" height="389.4" filterUnits="userSpaceOnUse" color-interpolation-filters="sRGB">
<feFlood flood-opacity="0" result="BackgroundImageFix"/>
<feColorMatrix in="SourceAlpha" type="matrix" values="0 0 0 0 0 0 0 0 0 0 0 0 0 0 0 0 0 0 127 0" result="hardAlpha"/>
<feOffset dy="5"/>
<feGaussianBlur stdDeviation="6.6"/>
<feComposite in2="hardAlpha" operator="out"/>
<feColorMatrix type="matrix" values="0 0 0 0 0 0 0 0 0 0 0 0 0 0 0 0 0 0 0.25 0"/>
<feBlend mode="normal" in2="BackgroundImageFix" result="effect1_dropShadow_293_251"/>
<feBlend mode="normal" in="SourceGraphic" in2="effect1_dropShadow_293_251" result="shape"/>
</filter>
<linearGradient id="paint0_linear_293_251" x1="210.452" y1="189.989" x2="531.2" y2="189.707" gradientUnits="userSpaceOnUse">
<stop stop-color="#97D8FF"/>
<stop offset="1" stop-color="#66A0FF"/>
</linearGradient>
</defs>
</svg>
