<svg width="44" height="54" viewBox="0 0 44 54" fill="none" xmlns="http://www.w3.org/2000/svg">
<mask id="path-1-outside-1_14_386" maskUnits="userSpaceOnUse" x="-0.927734" y="-0.879997" width="45" height="54" fill="black">
<rect fill="white" x="-0.927734" y="-0.879997" width="45" height="54"/>
<path d="M8.35227 49.12C6.94427 49.12 5.85627 48.7573 5.08827 48.032C4.36293 47.264 4.00027 46.176 4.00027 44.768V8.352C4.00027 6.944 4.36293 5.87733 5.08827 5.152C5.85627 4.384 6.94427 4 8.35227 4H32.5443C33.6109 4 34.4216 4.27733 34.9763 4.832C35.5736 5.38667 35.8723 6.176 35.8723 7.2C35.8723 8.26667 35.5736 9.09867 34.9763 9.696C34.4216 10.2507 33.6109 10.528 32.5443 10.528H11.8723V22.816H24.4163C29.2376 22.816 32.9923 23.9253 35.6803 26.144C38.4109 28.3627 39.7763 31.6267 39.7763 35.936C39.7763 40.2027 38.4109 43.4667 35.6803 45.728C32.9923 47.9893 29.2376 49.12 24.4163 49.12H8.35227ZM11.8723 42.592H23.3923C26.2936 42.592 28.4269 42.0587 29.7923 40.992C31.1576 39.8827 31.8403 38.1973 31.8403 35.936C31.8403 33.6747 31.1576 32.0107 29.7923 30.944C28.4269 29.8773 26.2936 29.344 23.3923 29.344H11.8723V42.592Z"/>
</mask>
<path d="M8.35227 49.12C6.94427 49.12 5.85627 48.7573 5.08827 48.032C4.36293 47.264 4.00027 46.176 4.00027 44.768V8.352C4.00027 6.944 4.36293 5.87733 5.08827 5.152C5.85627 4.384 6.94427 4 8.35227 4H32.5443C33.6109 4 34.4216 4.27733 34.9763 4.832C35.5736 5.38667 35.8723 6.176 35.8723 7.2C35.8723 8.26667 35.5736 9.09867 34.9763 9.696C34.4216 10.2507 33.6109 10.528 32.5443 10.528H11.8723V22.816H24.4163C29.2376 22.816 32.9923 23.9253 35.6803 26.144C38.4109 28.3627 39.7763 31.6267 39.7763 35.936C39.7763 40.2027 38.4109 43.4667 35.6803 45.728C32.9923 47.9893 29.2376 49.12 24.4163 49.12H8.35227ZM11.8723 42.592H23.3923C26.2936 42.592 28.4269 42.0587 29.7923 40.992C31.1576 39.8827 31.8403 38.1973 31.8403 35.936C31.8403 33.6747 31.1576 32.0107 29.7923 30.944C28.4269 29.8773 26.2936 29.344 23.3923 29.344H11.8723V42.592Z" fill="white"/>
<path d="M5.08827 48.032L2.18021 50.7785L2.25868 50.8616L2.34177 50.9401L5.08827 48.032ZM5.08827 5.152L2.25984 2.32357H2.25984L5.08827 5.152ZM34.9763 4.832L32.1478 7.66043L32.2002 7.71279L32.2545 7.76317L34.9763 4.832ZM11.8723 10.528V6.528H7.87227V10.528H11.8723ZM11.8723 22.816H7.87227V26.816H11.8723V22.816ZM35.6803 26.144L33.134 29.2289L33.1459 29.2387L33.1579 29.2485L35.6803 26.144ZM35.6803 45.728L33.129 42.6472L33.1171 42.6571L33.1052 42.6671L35.6803 45.728ZM11.8723 42.592H7.87227V46.592H11.8723V42.592ZM29.7923 40.992L32.2548 44.1441L32.285 44.1206L32.3146 44.0965L29.7923 40.992ZM11.8723 29.344V25.344H7.87227V29.344H11.8723ZM8.35227 49.12V45.12C7.984 45.12 7.80064 45.0718 7.74518 45.0533C7.7057 45.0401 7.76004 45.0534 7.83476 45.124L5.08827 48.032L2.34177 50.9401C4.07177 52.5739 6.27117 53.12 8.35227 53.12V49.12ZM5.08827 48.032L7.99632 45.2855C8.06689 45.3602 8.08016 45.4146 8.067 45.3751C8.04851 45.3196 8.00027 45.1363 8.00027 44.768H4.00027H0.000266075C0.000266075 46.8491 0.546328 49.0485 2.18021 50.7785L5.08827 48.032ZM4.00027 44.768H8.00027V8.352H4.00027H0.000266075V44.768H4.00027ZM4.00027 8.352H8.00027C8.00027 7.98125 8.04917 7.81358 8.05936 7.78361C8.06334 7.77191 8.05714 7.79354 8.03142 7.83591C8.00498 7.87946 7.96659 7.93053 7.91669 7.98043L5.08827 5.152L2.25984 2.32357C0.540166 4.04325 0.000266075 6.28727 0.000266075 8.352H4.00027ZM5.08827 5.152L7.91669 7.98043C7.89047 8.00665 7.86097 8.02964 7.83372 8.04656C7.80719 8.06303 7.7964 8.06531 7.81155 8.05996C7.8455 8.04798 8.00521 8 8.35227 8V4V0C6.21143 0 3.98183 0.601578 2.25984 2.32357L5.08827 5.152ZM8.35227 4V8H32.5443V4V0H8.35227V4ZM32.5443 4V8C32.7406 8 32.7567 8.0266 32.6575 7.99266C32.5395 7.95229 32.3408 7.85339 32.1478 7.66043L34.9763 4.832L37.8047 2.00357C36.2622 0.46106 34.2802 0 32.5443 0V4ZM34.9763 4.832L32.2545 7.76317C32.0848 7.60564 31.9682 7.41692 31.9071 7.25557C31.8531 7.11285 31.8723 7.07147 31.8723 7.2H35.8723H39.8723C39.8723 5.36783 39.3094 3.39705 37.6981 1.90083L34.9763 4.832ZM35.8723 7.2H31.8723C31.8723 7.36502 31.8488 7.36927 31.8835 7.27254C31.9013 7.22305 31.9314 7.15563 31.9791 7.07946C32.0272 7.00276 32.0847 6.9307 32.1478 6.86757L34.9763 9.696L37.8047 12.5244C39.3369 10.9923 39.8723 9.03416 39.8723 7.2H35.8723ZM34.9763 9.696L32.1478 6.86757C32.3408 6.67461 32.5395 6.57571 32.6575 6.53534C32.7567 6.5014 32.7406 6.528 32.5443 6.528V10.528V14.528C34.2802 14.528 36.2622 14.0669 37.8047 12.5244L34.9763 9.696ZM32.5443 10.528V6.528H11.8723V10.528V14.528H32.5443V10.528ZM11.8723 10.528H7.87227V22.816H11.8723H15.8723V10.528H11.8723ZM11.8723 22.816V26.816H24.4163V22.816V18.816H11.8723V22.816ZM24.4163 22.816V26.816C28.6616 26.816 31.3946 27.7932 33.134 29.2289L35.6803 26.144L38.2265 23.0591C34.5899 20.0574 29.8136 18.816 24.4163 18.816V22.816ZM35.6803 26.144L33.1579 29.2485C34.7446 30.5377 35.7763 32.5331 35.7763 35.936H39.7763H43.7763C43.7763 30.7202 42.0772 26.1877 38.2026 23.0395L35.6803 26.144ZM39.7763 35.936H35.7763C35.7763 39.2787 34.7542 41.3013 33.129 42.6472L35.6803 45.728L38.2315 48.8088C42.0676 45.632 43.7763 41.1267 43.7763 35.936H39.7763ZM35.6803 45.728L33.1052 42.6671C31.3671 44.1294 28.6455 45.12 24.4163 45.12V49.12V53.12C29.8297 53.12 34.6175 51.8493 38.2553 48.7889L35.6803 45.728ZM24.4163 49.12V45.12H8.35227V49.12V53.12H24.4163V49.12ZM11.8723 42.592V46.592H23.3923V42.592V38.592H11.8723V42.592ZM23.3923 42.592V46.592C26.6366 46.592 29.8501 46.0228 32.2548 44.1441L29.7923 40.992L27.3297 37.8399C27.0038 38.0945 25.9506 38.592 23.3923 38.592V42.592ZM29.7923 40.992L32.3146 44.0965C34.8699 42.0203 35.8403 39.0295 35.8403 35.936H31.8403H27.8403C27.8403 37.3652 27.4453 37.745 27.2699 37.8875L29.7923 40.992ZM31.8403 35.936H35.8403C35.8403 32.851 34.8719 29.8365 32.2548 27.7919L29.7923 30.944L27.3297 34.0961C27.4433 34.1849 27.8403 34.4984 27.8403 35.936H31.8403ZM29.7923 30.944L32.2548 27.7919C29.8501 25.9132 26.6366 25.344 23.3923 25.344V29.344V33.344C25.9506 33.344 27.0038 33.8415 27.3297 34.0961L29.7923 30.944ZM23.3923 29.344V25.344H11.8723V29.344V33.344H23.3923V29.344ZM11.8723 29.344H7.87227V42.592H11.8723H15.8723V29.344H11.8723Z" fill="#27AEF5" mask="url(#path-1-outside-1_14_386)"/>
</svg>
